<svg width="18" height="18" viewBox="0 0 28 28" fill="none" xmlns="http://www.w3.org/2000/svg">
<path d="M11.7596 17.3253L8.82657 14.4127L7.36695 15.8622L11.7458 20.2106L20.0078 12.006L18.5482 10.5565L11.7596 17.3253ZM13.77 24.8051C11.2136 24.8051 8.76186 23.7967 6.9542 22.0016C5.14653 20.2065 4.131 17.7718 4.131 15.2331C4.131 12.6945 5.14653 10.2598 6.9542 8.46473C8.76186 6.66963 11.2136 5.66115 13.77 5.66115C16.3264 5.66115 18.7781 6.66963 20.5858 8.46473C22.3935 10.2598 23.409 12.6945 23.409 15.2331C23.409 17.7718 22.3935 20.2065 20.5858 22.0016C18.7781 23.7967 16.3264 24.8051 13.77 24.8051ZM13.77 2.9263C10.4832 2.9263 7.33096 4.22291 5.00683 6.53089C2.68269 8.83887 1.377 11.9692 1.377 15.2331C1.377 18.4971 2.68269 21.6274 5.00683 23.9354C7.33096 26.2434 10.4832 27.54 13.77 27.54C17.0568 27.54 20.209 26.2434 22.5332 23.9354C24.8573 21.6274 26.163 18.4971 26.163 15.2331C26.163 11.9692 24.8573 8.83887 22.5332 6.53089C20.209 4.22291 17.0568 2.9263 13.77 2.9263ZM8.09676 2.09216L6.3342 0L0 5.2646L1.77633 7.35676L8.09676 2.09216ZM27.54 5.27827L21.2058 0L19.4295 2.09216L25.7637 7.37044L27.54 5.27827Z" fill="#4B31EE"/>
</svg>
