<svg width="30" height="25" viewBox="0 0 32 32" fill="none" xmlns="http://www.w3.org/2000/svg">
<path fill-rule="evenodd" clip-rule="evenodd" d="M26.0625 3.75C26.0625 4.67826 25.6938 5.5685 25.0374 6.22487C24.381 6.88125 23.4908 7.25 22.5625 7.25C21.6342 7.25 20.744 6.88125 20.0876 6.22487C19.4312 5.5685 19.0625 4.67826 19.0625 3.75C19.0625 2.82174 19.4312 1.9315 20.0876 1.27513C20.744 0.618749 21.6342 0.25 22.5625 0.25C23.4908 0.25 24.381 0.618749 25.0374 1.27513C25.6938 1.9315 26.0625 2.82174 26.0625 3.75ZM24.3125 3.75C24.3125 4.21413 24.1281 4.65925 23.7999 4.98744C23.4718 5.31563 23.0266 5.5 22.5625 5.5C22.0984 5.5 21.6533 5.31563 21.3251 4.98744C20.9969 4.65925 20.8125 4.21413 20.8125 3.75C20.8125 3.28587 20.9969 2.84075 21.3251 2.51256C21.6533 2.18437 22.0984 2 22.5625 2C23.0266 2 23.4718 2.18437 23.7999 2.51256C24.1281 2.84075 24.3125 3.28587 24.3125 3.75ZM4.625 19.5C4.625 19.0359 4.80937 18.5908 5.13756 18.2626C5.46575 17.9344 5.91087 17.75 6.375 17.75H9C9.46413 17.75 9.90925 17.9344 10.2374 18.2626C10.5656 18.5908 10.75 19.0359 10.75 19.5V21.25H13.375C13.8391 21.25 14.2842 21.4344 14.6124 21.7626C14.9406 22.0908 15.125 22.5359 15.125 23V30C15.125 30.4641 14.9406 30.9093 14.6124 31.2374C14.2842 31.5656 13.8391 31.75 13.375 31.75H2C1.53587 31.75 1.09075 31.5656 0.762563 31.2374C0.434374 30.9093 0.25 30.4641 0.25 30V23C0.25 22.5359 0.434374 22.0908 0.762563 21.7626C1.09075 21.4344 1.53587 21.25 2 21.25H4.625V19.5ZM2 30V23H3.75V30H2ZM9 19.5V21.25H6.375V19.5H9ZM9.875 23H5.5V30H9.875V23ZM11.625 23V30H13.375V23H11.625Z" fill="#4B31EE"/>
<path d="M28.25 14.25C28.25 13.7859 28.0656 13.3408 27.7374 13.0126C27.4092 12.6844 26.9641 12.5 26.5 12.5V16C26.9641 16 27.4092 15.8156 27.7374 15.4874C28.0656 15.1592 28.25 14.7141 28.25 14.25Z" fill="#4B31EE"/>
<path fill-rule="evenodd" clip-rule="evenodd" d="M19.5 31.75C18.8038 31.75 18.1361 31.4734 17.6438 30.9812C17.1516 30.4889 16.875 29.8212 16.875 29.125V14.25H12.5C11.8038 14.25 11.1361 13.9734 10.6438 13.4812C10.1516 12.9889 9.875 12.3212 9.875 11.625C9.875 10.9288 10.1516 10.2611 10.6438 9.76884C11.1361 9.27656 11.8038 9 12.5 9H27.389C28.3629 9 31.75 10.1935 31.75 13.8746C31.75 16.7962 29.6176 18.6233 28.25 19.2533V29.125C28.25 29.8212 27.9734 30.4889 27.4812 30.9812C26.9889 31.4734 26.3212 31.75 25.625 31.75C24.9288 31.75 24.2611 31.4734 23.7688 30.9812C23.2766 30.4889 23 29.8212 23 29.125V22.125H22.125V29.125C22.125 29.7384 21.915 30.3027 21.5615 30.7499C21.3161 31.0619 21.003 31.314 20.6459 31.4873C20.2888 31.6605 19.8969 31.7504 19.5 31.75ZM26.5 18.1324L27.5176 17.6634C28.5186 17.2022 30 15.8722 30 13.8746C30 12.6549 29.4706 11.9164 28.8555 11.4342C28.5568 11.2018 28.2246 11.0159 27.8703 10.883C27.7168 10.823 27.5576 10.7791 27.3951 10.7518C27.3829 10.75 27.3811 10.75 27.3881 10.75H12.5C12.2679 10.75 12.0454 10.8422 11.8813 11.0063C11.7172 11.1704 11.625 11.3929 11.625 11.625C11.625 11.8571 11.7172 12.0796 11.8813 12.2437C12.0454 12.4078 12.2679 12.5 12.5 12.5H18.625V29.125C18.625 29.3571 18.7172 29.5796 18.8813 29.7437C19.0454 29.9078 19.2679 30 19.5 30C19.7321 30 19.9546 29.9078 20.1187 29.7437C20.2828 29.5796 20.375 29.3571 20.375 29.125V20.375H24.75V29.125C24.75 29.3571 24.8422 29.5796 25.0063 29.7437C25.1704 29.9078 25.3929 30 25.625 30C25.8571 30 26.0796 29.9078 26.2437 29.7437C26.4078 29.5796 26.5 29.3571 26.5 29.125V18.1324Z" fill="#4B31EE"/>
</svg>
