<svg width="21" height="22" viewBox="0 0 21 22" fill="none" xmlns="http://www.w3.org/2000/svg">
<path d="M17.1035 4.2334L15.6879 20.2156H5.31198L3.89645 4.2334L2.10376 4.38904L3.54431 20.6617C3.58476 21.0277 3.75943 21.3661 4.03514 21.6129C4.31085 21.8596 4.6684 21.9974 5.03988 22H15.955C16.3289 21.9976 16.6887 21.8586 16.9656 21.6097C17.2425 21.3607 17.4169 21.0193 17.4556 20.6508L18.8952 4.393L17.1035 4.2334Z" fill="#1BC6D3"/>
<path d="M13.8002 0H7.19772C6.79974 0 6.41805 0.156665 6.13664 0.435531C5.85523 0.714397 5.69714 1.09262 5.69714 1.487V4.31031H7.49782V1.78439H13.5001V4.31031H15.3008V1.487C15.3008 1.29172 15.262 1.09836 15.1866 0.917947C15.1112 0.737536 15.0006 0.573611 14.8613 0.435531C14.722 0.297451 14.5565 0.187919 14.3745 0.113191C14.1924 0.0384623 13.9973 0 13.8002 0V0Z" fill="#1BC6D3"/>
<path d="M20.0997 3.41931H0V5.2037H21V3.41931H20.0997Z" fill="#1BC6D3"/>
</svg>
