<svg width="21" height="21" viewBox="0 0 21 21" fill="none" xmlns="http://www.w3.org/2000/svg">
<path d="M9.468 2.49609H2.882C2.38286 2.49609 1.90417 2.69438 1.55122 3.04732C1.19828 3.40026 1 3.87896 1 4.37809V17.5501C1 18.0492 1.19828 18.5279 1.55122 18.8809C1.90417 19.2338 2.38286 19.4321 2.882 19.4321H16.054C16.5531 19.4321 17.0318 19.2338 17.3848 18.8809C17.7377 18.5279 17.936 18.0492 17.936 17.5501V10.9641" stroke="#1BC6D3" stroke-width="1.5" stroke-linecap="round" stroke-linejoin="round"/>
<path d="M16.524 2.08203C16.9058 1.74536 17.4015 1.56691 17.9103 1.58304C18.419 1.59916 18.9025 1.80865 19.2621 2.16882C19.6218 2.52899 19.8306 3.01274 19.846 3.5215C19.8614 4.03027 19.6822 4.52576 19.345 4.90703L10.407 13.845L6.64502 14.782L7.58602 11.018L16.524 2.08203Z" stroke="#1BC6D3" stroke-width="1.5" stroke-linecap="round" stroke-linejoin="round"/>
</svg>
