<svg width="19" height="19" viewBox="0 0 19 19" fill="none" xmlns="http://www.w3.org/2000/svg">
<path d="M17.6036 9.2426C17.6036 13.8372 13.7861 17.582 9.05179 17.582C4.31751 17.582 0.5 13.8372 0.5 9.2426C0.5 4.648 4.31751 0.903198 9.05179 0.903198C13.7861 0.903198 17.6036 4.648 17.6036 9.2426Z" stroke="#4B31EE"/>
<path d="M4.21347 8.19315C3.53963 8.20689 2.887 8.53971 2.887 9.21369C2.887 9.88768 3.53963 10.2205 4.21347 10.2342C5.08484 10.252 6.58546 10.271 9.0221 10.271C11.4587 10.271 12.9594 10.252 13.8307 10.2342C14.5046 10.2205 15.1572 9.88768 15.1572 9.2137C15.1572 8.53971 14.5046 8.20689 13.8307 8.19315C12.9594 8.17539 11.4587 8.15643 9.0221 8.15643C6.58546 8.15643 5.08484 8.17538 4.21347 8.19315Z" fill="#4B31EE"/>
</svg>
