<svg width="18" height="18" viewBox="0 0 26 25" fill="none" xmlns="http://www.w3.org/2000/svg">
<path opacity="0.2" d="M24.2542 12.4312C24.2542 14.7008 23.5812 16.9194 22.3203 18.8064C21.0594 20.6935 19.2673 22.1642 17.1705 23.0328C15.0737 23.9013 12.7665 24.1285 10.5405 23.6857C8.3146 23.243 6.26995 22.1501 4.66514 20.5453C3.06033 18.9405 1.96744 16.8958 1.52468 14.6699C1.08191 12.444 1.30916 10.1367 2.17767 8.03995C3.04619 5.94316 4.51697 4.15101 6.40402 2.89012C8.29108 1.62923 10.5096 0.956238 12.7792 0.956238C15.8225 0.956238 18.7413 2.16521 20.8932 4.31719C23.0452 6.46917 24.2542 9.38788 24.2542 12.4312Z" fill="#4B31EE"/>
<path d="M12.7792 0H12.7672C9.46762 0.00158483 6.30372 1.31367 3.97138 3.6477C1.63903 5.98173 0.329225 9.14657 0.330017 12.4462C0.33081 15.7458 1.64214 18.91 3.9756 21.2429C6.30907 23.5758 9.4736 24.8864 12.7732 24.8864C16.0728 24.8864 19.2374 23.5758 21.5708 21.2429C23.9043 18.91 25.2156 15.7458 25.2164 12.4462C25.2172 9.14657 23.9074 5.98173 21.5751 3.6477C19.2427 1.31367 16.0788 0.00158483 12.7792 0ZM12.7792 22.95C10.1532 22.946 7.62374 21.9599 5.68789 20.1856C3.75205 18.4113 2.54988 15.9771 2.31767 13.3614C2.08547 10.7457 2.84002 8.13779 4.43303 6.0502C6.02604 3.96261 8.34227 2.54637 10.9265 2.07984C9.9224 4.0282 9.91045 5.65383 9.91045 5.7375C9.91045 6.49834 10.2127 7.22802 10.7507 7.76601C11.2887 8.30401 12.0184 8.60625 12.7792 8.60625C13.54 8.60625 14.2697 8.30401 14.8077 7.76601C15.3457 7.22802 15.6479 6.49834 15.6479 5.7375C15.6479 5.48389 15.5472 5.24066 15.3679 5.06133C15.1885 4.882 14.9453 4.78125 14.6917 4.78125C14.4381 4.78125 14.1949 4.882 14.0155 5.06133C13.8362 5.24066 13.7354 5.48389 13.7354 5.7375C13.7354 5.99111 13.6347 6.23434 13.4554 6.41367C13.276 6.593 13.0328 6.69375 12.7792 6.69375C12.5256 6.69375 12.2824 6.593 12.103 6.41367C11.9237 6.23434 11.8229 5.99111 11.8229 5.7375C11.8229 5.72555 11.8588 3.87281 13.2454 1.92445C15.9858 2.05491 18.5667 3.25085 20.4379 5.25724C22.309 7.26362 23.3222 9.92166 23.2614 12.6645C23.2006 15.4073 22.0705 18.0178 20.1123 19.9393C18.1541 21.8608 15.5227 22.9411 12.7792 22.95ZM8.47607 13.8656C8.19238 13.8656 7.91506 13.7815 7.67918 13.6239C7.44329 13.4663 7.25945 13.2423 7.15088 12.9802C7.04232 12.7181 7.01391 12.4297 7.06926 12.1514C7.1246 11.8732 7.26122 11.6176 7.46182 11.417C7.66242 11.2164 7.918 11.0798 8.19624 11.0244C8.47448 10.9691 8.76289 10.9975 9.02498 11.1061C9.28708 11.2146 9.5111 11.3985 9.66871 11.6344C9.82632 11.8702 9.91045 12.1476 9.91045 12.4313C9.91045 12.8117 9.75933 13.1765 9.49033 13.4455C9.22133 13.7145 8.85649 13.8656 8.47607 13.8656ZM18.5167 12.4313C18.5167 12.7149 18.4326 12.9923 18.275 13.2281C18.1173 13.464 17.8933 13.6479 17.6312 13.7564C17.3691 13.865 17.0807 13.8934 16.8025 13.8381C16.5242 13.7827 16.2687 13.6461 16.0681 13.4455C15.8675 13.2449 15.7309 12.9893 15.6755 12.7111C15.6202 12.4328 15.6486 12.1444 15.7571 11.8823C15.8657 11.6202 16.0495 11.3962 16.2854 11.2386C16.5213 11.081 16.7986 10.9969 17.0823 10.9969C17.4627 10.9969 17.8276 11.148 18.0966 11.417C18.3656 11.686 18.5167 12.0508 18.5167 12.4313ZM16.7476 16.6866C16.8856 16.8983 16.9354 17.1556 16.8863 17.4035C16.8371 17.6514 16.693 17.8703 16.4847 18.0134C15.385 18.7387 14.0966 19.1254 12.7792 19.1254C11.4618 19.1254 10.1734 18.7387 9.07373 18.0134C8.8654 17.8703 8.72127 17.6514 8.67214 17.4035C8.623 17.1556 8.67275 16.8983 8.81076 16.6866C8.87966 16.5812 8.96869 16.4905 9.07273 16.4196C9.17677 16.3487 9.29379 16.2991 9.41706 16.2736C9.54033 16.248 9.66744 16.2471 9.79108 16.2708C9.91472 16.2945 10.0325 16.3423 10.1376 16.4116C10.9196 16.9338 11.8389 17.2125 12.7792 17.2125C13.7195 17.2125 14.6388 16.9338 15.4208 16.4116C15.5259 16.3423 15.6437 16.2945 15.7673 16.2708C15.891 16.2471 16.0181 16.248 16.1413 16.2736C16.2646 16.2991 16.3816 16.3487 16.4857 16.4196C16.5897 16.4905 16.6787 16.5812 16.7476 16.6866Z" fill="#4B31EE"/>
</svg>
