<svg width="18" height="22" viewBox="0 0 18 22" fill="none" xmlns="http://www.w3.org/2000/svg">
<path fill-rule="evenodd" clip-rule="evenodd" d="M4.2769 17.6852C5.57975 19.2402 7.01037 20.6835 8.55379 22C10.0972 20.6835 11.5278 19.2402 12.8307 17.6852C14.7858 15.3501 17.1076 11.8723 17.1076 8.55834C17.1148 6.2884 16.2137 4.10989 14.605 2.50837C12.1587 0.0598362 8.4779 -0.673146 5.28022 0.651461C2.08254 1.97607 -0.00173093 5.09717 2.02257e-06 8.55834C2.02257e-06 11.8723 2.32175 15.3501 4.2769 17.6852Z" fill="#4B31EE"/>
<path d="M4.8037 11.222L7.9937 4.17198H9.0737L12.3037 11.222H10.9937L10.1337 9.24198L10.6537 9.59198H6.4237L6.9637 9.24198L6.1037 11.222H4.8037ZM8.5237 5.55198L7.1137 8.89198L6.8537 8.58198H10.2137L10.0037 8.89198L8.5637 5.55198H8.5237Z" fill="white"/>
</svg>
