<svg width="20" height="20" viewBox="0 0 30 30" fill="none" xmlns="http://www.w3.org/2000/svg">
<path d="M7.5 5.99999V1.49999C7.5 1.10217 7.65804 0.720637 7.93934 0.439332C8.22064 0.158028 8.60218 -7.62939e-06 9 -7.62939e-06H21C21.3978 -7.62939e-06 21.7794 0.158028 22.0607 0.439332C22.342 0.720637 22.5 1.10217 22.5 1.49999V5.99999H28.5C28.8978 5.99999 29.2794 6.15803 29.5607 6.43933C29.842 6.72064 30 7.10217 30 7.49999V28.5C30 28.8978 29.842 29.2793 29.5607 29.5607C29.2794 29.842 28.8978 30 28.5 30H1.5C1.10218 30 0.720644 29.842 0.43934 29.5607C0.158035 29.2793 0 28.8978 0 28.5V7.49999C0 7.10217 0.158035 6.72064 0.43934 6.43933C0.720644 6.15803 1.10218 5.99999 1.5 5.99999H7.5ZM27 18H3V27H27V18ZM27 8.99999H3V15H7.5V12H10.5V15H19.5V12H22.5V15H27V8.99999ZM10.5 2.99999V5.99999H19.5V2.99999H10.5Z" fill="#4B31EE"/>
</svg>
