<svg width="19" height="19" viewBox="0 0 19 19" fill="none" xmlns="http://www.w3.org/2000/svg">
<path d="M18.3982 9.2426C18.3982 13.8372 14.5807 17.582 9.8464 17.582C5.11212 17.582 1.29461 13.8372 1.29461 9.2426C1.29461 4.648 5.11212 0.903198 9.8464 0.903198C14.5807 0.903198 18.3982 4.648 18.3982 9.2426Z" stroke="#4B31EE"/>
<path d="M9.09499 5.71493C9.09499 5.11699 9.57971 4.63226 10.1777 4.63226C10.7756 4.63226 11.2603 5.11699 11.2603 5.71493V13.4174C11.2603 14.0153 10.7756 14.5 10.1777 14.5C9.57971 14.5 9.09499 14.0153 9.09499 13.4174V5.71493Z" fill="#4B31EE"/>
<path d="M14.1726 8.50891C14.7566 8.50891 15.2299 8.98226 15.2299 9.56617C15.2299 10.1501 14.7566 10.6234 14.1726 10.6234L6.18229 10.6234C5.59838 10.6234 5.12503 10.1501 5.12503 9.56617C5.12503 8.98226 5.59838 8.50891 6.18229 8.50891L14.1726 8.50891Z" fill="#4B31EE"/>
</svg>
