<svg width="15"  height="15" viewBox="0 0 26 26" fill="none" xmlns="http://www.w3.org/2000/svg">
<path d="M8.53124 7.3125C7.9688 7.3125 7.41899 7.14572 6.95134 6.83324C6.48369 6.52077 6.1192 6.07663 5.90396 5.55701C5.68872 5.03738 5.63241 4.4656 5.74214 3.91396C5.85186 3.36233 6.1227 2.85562 6.52041 2.45792C6.91811 2.06021 7.42482 1.78937 7.97646 1.67964C8.52809 1.56992 9.09987 1.62623 9.6195 1.84147C10.1391 2.05671 10.5833 2.4212 10.8957 2.88885C11.2082 3.3565 11.375 3.90631 11.375 4.46875C11.3741 5.2227 11.0742 5.94552 10.5411 6.47864C10.008 7.01176 9.28519 7.31164 8.53124 7.3125ZM8.53124 3.25C8.2902 3.25 8.05457 3.32148 7.85414 3.4554C7.65372 3.58932 7.49751 3.77966 7.40527 4.00236C7.31302 4.22505 7.28889 4.4701 7.33591 4.70652C7.38294 4.94293 7.49901 5.16009 7.66946 5.33054C7.8399 5.50098 8.05706 5.61706 8.29348 5.66408C8.52989 5.71111 8.77494 5.68697 8.99764 5.59473C9.22034 5.50249 9.41068 5.34627 9.5446 5.14585C9.67852 4.94543 9.74999 4.7098 9.74999 4.46875C9.74956 4.14565 9.62102 3.83591 9.39256 3.60744C9.16409 3.37897 8.85434 3.25043 8.53124 3.25ZM18.2601 25.4418L15.7137 19.5H9.94418C9.22797 19.4994 8.53194 19.2626 7.96393 18.8263C7.39591 18.3901 6.9876 17.7787 6.80224 17.0869L5.47462 12.1087C5.25816 11.2968 5.37308 10.4322 5.79408 9.70512C6.21509 8.978 6.9077 8.4479 7.71956 8.23144C8.53141 8.01498 9.396 8.1299 10.1231 8.5509C10.8502 8.97191 11.3803 9.66452 11.5968 10.4764L12.2687 13H17.0625V14.625H11.0207L10.0271 10.8956C9.91155 10.5117 9.65121 10.1878 9.30112 9.99239C8.95103 9.797 8.53866 9.74547 8.15125 9.84871C7.76385 9.95194 7.4318 10.2018 7.22537 10.5455C7.01894 10.8892 6.95432 11.2998 7.04518 11.6903L8.37199 16.6676C8.46472 17.0136 8.66892 17.3195 8.95299 17.5377C9.23705 17.756 9.58514 17.8745 9.94337 17.875H16.7846L19.7543 24.8016L18.2601 25.4418ZM24.375 4.875H21.125V1.625H19.5V4.875H16.25V6.5H19.5V9.75H21.125V6.5H24.375V4.875Z" fill="#4B31EE"/>
<path d="M14.625 22.75H6.31154C5.95345 22.7498 5.60543 22.6315 5.32147 22.4133C5.0375 22.1951 4.83345 21.8894 4.74098 21.5434L1.65186 9.95963L3.22242 9.54037L6.31154 21.125H14.625V22.75Z" fill="#4B31EE"/>
</svg>
