<svg width="105" height="105" viewBox="0 0 209 209" fill="none" xmlns="http://www.w3.org/2000/svg">
<g filter="url(#filter0_d_317_1649)">
<rect x="80" y="76" width="49" height="49" rx="10" fill="url(#paint0_linear_317_1649)" shape-rendering="crispEdges"/>
</g>
<path d="M102 87H117V90.375H102V87ZM102 93.75H111V97.125H102V93.75ZM102 103.875H117V107.25H102V103.875ZM102 110.625H111V114H102V110.625ZM90 87H99V97.125H90V87ZM93 90.375V93.75H96V90.375H93ZM90 103.875H99V114H90V103.875ZM93 107.25V110.625H96V107.25H93Z" fill="white"/>
<defs>
<filter id="filter0_d_317_1649" x="0" y="0" width="209" height="209" filterUnits="userSpaceOnUse" color-interpolation-filters="sRGB">
<feFlood flood-opacity="0" result="BackgroundImageFix"/>
<feColorMatrix in="SourceAlpha" type="matrix" values="0 0 0 0 0 0 0 0 0 0 0 0 0 0 0 0 0 0 127 0" result="hardAlpha"/>
<feOffset dy="4"/>
<feGaussianBlur stdDeviation="40"/>
<feComposite in2="hardAlpha" operator="out"/>
<feColorMatrix type="matrix" values="0 0 0 0 0.0980392 0 0 0 0 0.12549 0 0 0 0 0.219608 0 0 0 0.2 0"/>
<feBlend mode="normal" in2="BackgroundImageFix" result="effect1_dropShadow_317_1649"/>
<feBlend mode="normal" in="SourceGraphic" in2="effect1_dropShadow_317_1649" result="shape"/>
</filter>
<linearGradient id="paint0_linear_317_1649" x1="104.5" y1="76" x2="104.5" y2="125" gradientUnits="userSpaceOnUse">
<stop stop-color="#6967FD"/>
<stop offset="1" stop-color="#28287E" stop-opacity="0.79"/>
</linearGradient>
</defs>
</svg>
