<svg width="18" height="18" viewBox="0 0 26 21" fill="none" xmlns="http://www.w3.org/2000/svg">
<path d="M12.5533 8.16668V21C11.3869 21 6.25736 21 3.18974 21C1.89704 21 0.850098 19.9553 0.850098 18.6667V2.33333C0.850098 1.04467 1.89803 -2.475e-07 3.19073 0L19.5752 3.13697e-06C20.8679 3.38447e-06 21.9158 1.04467 21.9158 2.33333V8.16668H12.5533ZM10.2126 8.16668H3.19073V12.8333H10.2126V8.16668ZM10.2126 18.6667V15.1667H3.19073V18.6667H10.2126ZM12.5533 2.33335V5.83334H19.5752V2.33335H12.5533ZM10.2126 2.33335H3.19073V5.83334H10.2126V2.33335Z" fill="#4B31EE"/>
<path d="M19.5752 21V17.5H16.0642V15.1667H19.5752V11.6667H21.9158V15.1667H25.4268V17.5H21.9158V21H19.5752Z" fill="#4B31EE"/>
</svg>
