<svg width="18" height="18" viewBox="0 0 23 31" fill="none" xmlns="http://www.w3.org/2000/svg">
<path d="M19.2659 6.11999C20.9183 6.11999 22.28 7.46639 22.28 9.17999V26.01C22.28 27.7389 20.9183 29.07 19.2659 29.07C19.2659 29.9574 18.5468 30.6 17.69 30.6C16.925 30.6 16.16 29.9574 16.16 29.07H6.97999C6.97999 29.9574 6.21499 30.6 5.44999 30.6C4.59319 30.6 3.87408 29.9574 3.87408 29.07C2.22168 29.07 0.859985 27.7389 0.859985 26.01V9.17999C0.859985 7.46639 2.22168 6.11999 3.87408 6.11999H6.97999V1.52999C6.97999 0.642592 7.68378 -7.62939e-06 8.50998 -7.62939e-06H14.63C15.4562 -7.62939e-06 16.16 0.642592 16.16 1.52999V6.11999H19.2659ZM13.865 6.11999V2.29499H9.27499V6.11999H13.865ZM5.44999 10.71V24.48H7.74499V10.71H5.44999ZM15.395 10.71V24.48H17.69V10.71H15.395ZM10.4225 10.71V24.48H12.7175V10.71H10.4225Z" fill="#4B31EE"/>
</svg>
