<svg width="61" height="17" viewBox="0 0 61 17" fill="none" xmlns="http://www.w3.org/2000/svg">
<rect x="0.5" y="0.5" width="60" height="16" rx="8" fill="#F2F0FF" stroke="#4B31EE"/>
<path d="M15.4302 13C15.3348 13 15.2612 12.974 15.2092 12.922C15.1572 12.8613 15.1312 12.7877 15.1312 12.701V4.212C15.1312 4.11667 15.1572 4.043 15.2092 3.991C15.2612 3.93033 15.3348 3.9 15.4302 3.9H20.7342C20.8295 3.9 20.9032 3.93033 20.9552 3.991C21.0072 4.043 21.0332 4.11667 21.0332 4.212V4.732C21.0332 4.82733 21.0072 4.901 20.9552 4.953C20.9032 5.005 20.8295 5.031 20.7342 5.031H16.3922V8.06H20.4742C20.5695 8.06 20.6432 8.09033 20.6952 8.151C20.7472 8.203 20.7732 8.27667 20.7732 8.372V8.892C20.7732 8.97867 20.7472 9.05233 20.6952 9.113C20.6432 9.165 20.5695 9.191 20.4742 9.191H16.3922V12.701C16.3922 12.7877 16.3618 12.8613 16.3012 12.922C16.2492 12.974 16.1755 13 16.0802 13H15.4302ZM23.022 13C22.9266 13 22.853 12.974 22.801 12.922C22.749 12.8613 22.723 12.7877 22.723 12.701V4.212C22.723 4.11667 22.749 4.043 22.801 3.991C22.853 3.93033 22.9266 3.9 23.022 3.9H26.194C27.1733 3.9 27.949 4.12967 28.521 4.589C29.093 5.04833 29.379 5.72867 29.379 6.63C29.379 7.29733 29.21 7.84333 28.872 8.268C28.5426 8.684 28.092 8.97433 27.52 9.139L29.522 12.597C29.548 12.649 29.561 12.6967 29.561 12.74C29.561 12.8093 29.5306 12.87 29.47 12.922C29.418 12.974 29.3573 13 29.288 13H28.664C28.5166 13 28.4083 12.961 28.339 12.883C28.2696 12.805 28.209 12.727 28.157 12.649L26.272 9.347H23.997V12.701C23.997 12.7877 23.9666 12.8613 23.906 12.922C23.854 12.974 23.7803 13 23.685 13H23.022ZM23.997 8.242H26.142C26.792 8.242 27.2773 8.10767 27.598 7.839C27.9186 7.56167 28.079 7.15433 28.079 6.617C28.079 6.08833 27.9186 5.68533 27.598 5.408C27.286 5.13067 26.8006 4.992 26.142 4.992H23.997V8.242ZM31.5405 13C31.4452 13 31.3715 12.974 31.3195 12.922C31.2675 12.8613 31.2415 12.7877 31.2415 12.701V4.212C31.2415 4.11667 31.2675 4.043 31.3195 3.991C31.3715 3.93033 31.4452 3.9 31.5405 3.9H36.9095C37.0049 3.9 37.0785 3.93033 37.1305 3.991C37.1825 4.043 37.2085 4.11667 37.2085 4.212V4.706C37.2085 4.80133 37.1825 4.875 37.1305 4.927C37.0785 4.979 37.0049 5.005 36.9095 5.005H32.4895V7.852H36.6235C36.7189 7.852 36.7925 7.88233 36.8445 7.943C36.8965 7.995 36.9225 8.06867 36.9225 8.164V8.645C36.9225 8.73167 36.8965 8.80533 36.8445 8.866C36.7925 8.918 36.7189 8.944 36.6235 8.944H32.4895V11.895H37.0135C37.1089 11.895 37.1825 11.921 37.2345 11.973C37.2865 12.025 37.3125 12.0987 37.3125 12.194V12.701C37.3125 12.7877 37.2865 12.8613 37.2345 12.922C37.1825 12.974 37.1089 13 37.0135 13H31.5405ZM39.4243 13C39.329 13 39.2553 12.974 39.2033 12.922C39.1513 12.8613 39.1253 12.7877 39.1253 12.701V4.212C39.1253 4.11667 39.1513 4.043 39.2033 3.991C39.2553 3.93033 39.329 3.9 39.4243 3.9H44.7933C44.8887 3.9 44.9623 3.93033 45.0143 3.991C45.0663 4.043 45.0923 4.11667 45.0923 4.212V4.706C45.0923 4.80133 45.0663 4.875 45.0143 4.927C44.9623 4.979 44.8887 5.005 44.7933 5.005H40.3733V7.852H44.5073C44.6027 7.852 44.6763 7.88233 44.7283 7.943C44.7803 7.995 44.8063 8.06867 44.8063 8.164V8.645C44.8063 8.73167 44.7803 8.80533 44.7283 8.866C44.6763 8.918 44.6027 8.944 44.5073 8.944H40.3733V11.895H44.8973C44.9927 11.895 45.0663 11.921 45.1183 11.973C45.1703 12.025 45.1963 12.0987 45.1963 12.194V12.701C45.1963 12.7877 45.1703 12.8613 45.1183 12.922C45.0663 12.974 44.9927 13 44.8973 13H39.4243Z" fill="#4B31EE"/>
</svg>
