<svg width="18" height="18" viewBox="0 0 26 25" fill="none" xmlns="http://www.w3.org/2000/svg">
<path d="M16.8685 8.38403L11.0871 14.1855L8.82593 11.909C8.59577 11.6785 8.28361 11.549 7.95811 11.549C7.63262 11.549 7.32046 11.6785 7.0903 11.909C6.86014 12.1395 6.73083 12.4521 6.73083 12.778C6.73083 12.9394 6.76258 13.0992 6.82426 13.2483C6.88593 13.3974 6.97633 13.5329 7.0903 13.647L10.2193 16.7803C10.333 16.895 10.4681 16.9861 10.6171 17.0482C10.766 17.1103 10.9258 17.1423 11.0871 17.1423C11.2485 17.1423 11.4083 17.1103 11.5572 17.0482C11.7061 16.9861 11.8413 16.895 11.955 16.7803L18.6041 10.122C18.7181 10.0079 18.8085 9.87243 18.8702 9.72333C18.9319 9.57423 18.9636 9.41442 18.9636 9.25303C18.9636 9.09164 18.9319 8.93183 18.8702 8.78273C18.8085 8.63363 18.7181 8.49815 18.6041 8.38403C18.4902 8.26991 18.3549 8.17939 18.206 8.11763C18.0571 8.05587 17.8975 8.02408 17.7363 8.02408C17.5752 8.02408 17.4156 8.05587 17.2667 8.11763C17.1178 8.17939 16.9825 8.26991 16.8685 8.38403ZM12.8472 0C11.2421 0 9.6527 0.316583 8.16977 0.931673C6.68683 1.54676 5.33941 2.44832 4.20442 3.58485C1.9122 5.8802 0.624448 8.99335 0.624448 12.2395C0.613763 15.0657 1.59102 17.8066 3.3868 19.987L0.94224 22.4349C0.77264 22.607 0.65775 22.8256 0.612069 23.063C0.566387 23.3005 0.59196 23.5461 0.685562 23.769C0.787081 23.9893 0.951657 24.1743 1.1584 24.3007C1.36514 24.4271 1.60472 24.4891 1.84673 24.4789H12.8472C16.0889 24.4789 19.1978 23.1894 21.49 20.8941C23.7822 18.5987 25.07 15.4856 25.07 12.2395C25.07 8.99335 23.7822 5.8802 21.49 3.58485C19.1978 1.28951 16.0889 0 12.8472 0ZM12.8472 22.031H4.79241L5.92913 20.8928C6.15678 20.6634 6.28456 20.3532 6.28456 20.0299C6.28456 19.7065 6.15678 19.3963 5.92913 19.167C4.32866 17.5661 3.33201 15.4591 3.10896 13.2049C2.88592 10.9507 3.45028 8.6888 4.70591 6.80455C5.96154 4.92031 7.83074 3.5303 9.99506 2.87134C12.1594 2.21239 14.4849 2.32526 16.5754 3.19072C18.666 4.05618 20.3922 5.6207 21.4599 7.61771C22.5277 9.61472 22.871 11.9207 22.4313 14.1427C21.9916 16.3647 20.7961 18.3654 19.0485 19.8037C17.3009 21.2421 15.1094 22.0292 12.8472 22.031Z" fill="#4B31EE"/>
</svg>
