<svg width="18" height="21" viewBox="0 0 18 21" fill="none" xmlns="http://www.w3.org/2000/svg">
<path d="M15.2065 2.48528C13.6152 0.893983 11.4569 -1.67671e-08 9.20647 0C6.95604 1.67671e-08 4.79777 0.893983 3.20647 2.48528C1.61517 4.07658 0.721191 6.23485 0.721191 8.48528C0.721191 10.7357 1.61517 12.894 3.20647 14.4853L8.47647 19.7653C8.56944 19.859 8.68004 19.9334 8.8019 19.9842C8.92376 20.0349 9.05446 20.0611 9.18647 20.0611C9.31848 20.0611 9.44919 20.0349 9.57105 19.9842C9.69291 19.9334 9.80351 19.859 9.89647 19.7653L15.2065 14.4353C16.7911 12.8506 17.6814 10.7013 17.6814 8.46028C17.6814 6.21923 16.7911 4.06996 15.2065 2.48528ZM13.7765 13.0053L9.20647 17.5953L4.63647 13.0053C3.73362 12.1016 3.11895 10.9505 2.87017 9.69757C2.62139 8.44462 2.74966 7.14603 3.23878 5.96596C3.72789 4.7859 4.55589 3.77733 5.6181 3.06776C6.68032 2.35819 7.92906 1.97946 9.20647 1.97946C10.4839 1.97946 11.7326 2.35819 12.7948 3.06776C13.8571 3.77733 14.6851 4.7859 15.1742 5.96596C15.6633 7.14603 15.7916 8.44462 15.5428 9.69757C15.294 10.9505 14.6793 12.1016 13.7765 13.0053ZM6.20647 5.41528C5.39919 6.22505 4.94587 7.32185 4.94587 8.46528C4.94587 9.60872 5.39919 10.7055 6.20647 11.5153C6.80623 12.1161 7.57006 12.5264 8.40212 12.6947C9.23419 12.863 10.0974 12.7819 10.8835 12.4614C11.6697 12.141 12.3437 11.5956 12.821 10.8935C13.2983 10.1915 13.5576 9.36415 13.5665 8.51528C13.571 7.94849 13.4618 7.38654 13.2454 6.86267C13.029 6.3388 12.7097 5.86364 12.3065 5.46528C11.9101 5.05986 11.4376 4.73682 10.9159 4.51475C10.3942 4.29268 9.83381 4.17596 9.26687 4.17131C8.69993 4.16666 8.13767 4.27418 7.61244 4.48767C7.08722 4.70116 6.60939 5.01641 6.20647 5.41528ZM10.8965 10.0953C10.5175 10.48 10.0167 10.7212 9.4796 10.7775C8.94252 10.8339 8.40254 10.7019 7.95198 10.4042C7.50142 10.1065 7.16827 9.66152 7.00948 9.14536C6.85069 8.62921 6.87612 8.07392 7.08143 7.57444C7.28674 7.07495 7.65917 6.6623 8.13506 6.40702C8.61094 6.15174 9.16072 6.06969 9.69041 6.1749C10.2201 6.28011 10.6968 6.56604 11.039 6.98381C11.3812 7.40158 11.5676 7.92525 11.5665 8.46528C11.5519 9.08255 11.293 9.66881 10.8465 10.0953H10.8965Z" fill="#4B31EE"/>
</svg>
