<svg width="18" height="18" viewBox="0 0 26 31" fill="none" xmlns="http://www.w3.org/2000/svg">
<path d="M7.71003 30.6V10.3657C5.38953 9.75375 3.53415 8.47212 2.14389 6.52086C0.753629 4.5696 0.0590092 2.39598 0.0600292 -5.03177e-06H3.12003C3.12003 2.1165 3.80241 3.92088 5.16717 5.41314C6.53193 6.9054 8.27205 7.65102 10.3875 7.65H14.2125C14.9775 7.65 15.6915 7.79025 16.3545 8.07075C17.0175 8.35125 17.6168 8.75925 18.1523 9.29475L25.0755 16.218L22.9335 18.36L16.89 12.3165V30.6H13.83V21.42H10.77V30.6H7.71003ZM12.3 6.12C11.4585 6.12 10.7379 5.82012 10.1381 5.22036C9.53838 4.6206 9.23901 3.90048 9.24003 3.06C9.24003 2.2185 9.53991 1.49786 10.1397 0.898105C10.7394 0.298345 11.4595 -0.00102503 12.3 -5.03177e-06C13.1415 -5.03177e-06 13.8622 0.299875 14.4619 0.899635C15.0617 1.4994 15.361 2.21952 15.36 3.06C15.36 3.9015 15.0601 4.62213 14.4604 5.22189C13.8606 5.82165 13.1405 6.12102 12.3 6.12Z" fill="#4B31EE"/>
</svg>
