<svg width="22" height="27" viewBox="0 0 22 27" fill="none" xmlns="http://www.w3.org/2000/svg">
<path d="M6.875 23.5393H15.125V26.3079H6.875C3.08 26.3079 0 23.2071 0 19.3866V6.92822H2.75V19.3866C2.75 21.6844 4.5925 23.5393 6.875 23.5393ZM8.8275 4.72725C9.9 3.64753 9.9 1.88952 8.8275 0.809792C7.755 -0.269931 6.00875 -0.269931 4.93625 0.809792C3.86375 1.88952 3.86375 3.64753 4.93625 4.72725C6.00875 5.82082 7.74125 5.82082 8.8275 4.72725ZM10.3125 9.69674C10.3125 8.17406 9.075 6.92822 7.5625 6.92822H6.875C5.3625 6.92822 4.125 8.17406 4.125 9.69674V18.0023C4.125 20.3002 5.9675 22.1551 8.25 22.1551H15.2212L20.0337 27L22 25.0205L15.0288 18.0023H10.3125V9.69674Z" fill="#341EA0"/>
</svg>
