<svg width="20" height="20" viewBox="0 0 37 29" fill="none" xmlns="http://www.w3.org/2000/svg">
<path d="M18.8333 14.5333C19.7226 13.7635 20.4359 12.8115 20.9248 11.7417C21.4137 10.6719 21.6667 9.50951 21.6667 8.33333C21.6667 6.12319 20.7887 4.00357 19.2259 2.44077C17.6631 0.877966 15.5435 -7.33121e-06 13.3333 -7.33121e-06C11.1232 -7.33121e-06 9.00358 0.877966 7.44078 2.44077C5.87797 4.00357 5 6.12319 5 8.33333C4.99999 9.50951 5.253 10.6719 5.74188 11.7417C6.23075 12.8115 6.94404 13.7635 7.83333 14.5333C5.50023 15.5898 3.52078 17.2959 2.13163 19.4476C0.742492 21.5993 0.00245309 24.1055 0 26.6667C0 27.1087 0.175595 27.5326 0.488155 27.8452C0.800716 28.1577 1.22464 28.3333 1.66667 28.3333C2.10869 28.3333 2.53262 28.1577 2.84518 27.8452C3.15774 27.5326 3.33333 27.1087 3.33333 26.6667C3.33333 24.0145 4.3869 21.471 6.26227 19.5956C8.13763 17.7202 10.6812 16.6667 13.3333 16.6667C15.9855 16.6667 18.529 17.7202 20.4044 19.5956C22.2798 21.471 23.3333 24.0145 23.3333 26.6667C23.3333 27.1087 23.5089 27.5326 23.8215 27.8452C24.134 28.1577 24.558 28.3333 25 28.3333C25.442 28.3333 25.866 28.1577 26.1785 27.8452C26.4911 27.5326 26.6667 27.1087 26.6667 26.6667C26.6642 24.1055 25.9242 21.5993 24.535 19.4476C23.1459 17.2959 21.1664 15.5898 18.8333 14.5333ZM13.3333 13.3333C12.3444 13.3333 11.3777 13.0401 10.5555 12.4907C9.73324 11.9413 9.09237 11.1604 8.71394 10.2467C8.3355 9.33311 8.23648 8.32778 8.42941 7.35787C8.62233 6.38797 9.09854 5.49706 9.7978 4.79779C10.4971 4.09853 11.388 3.62233 12.3579 3.4294C13.3278 3.23647 14.3331 3.33549 15.2467 3.71393C16.1604 4.09237 16.9413 4.73323 17.4907 5.55547C18.0401 6.37772 18.3333 7.34442 18.3333 8.33333C18.3333 9.65941 17.8065 10.9312 16.8689 11.8689C15.9312 12.8065 14.6594 13.3333 13.3333 13.3333ZM29.5667 13.8667C30.6333 12.6655 31.33 11.1818 31.573 9.59389C31.816 8.00603 31.5949 6.38178 30.9363 4.91666C30.2777 3.45154 29.2097 2.20799 27.8608 1.3357C26.5119 0.463409 24.9397 -0.000436963 23.3333 -7.33121e-06C22.8913 -7.33121e-06 22.4674 0.175587 22.1548 0.488148C21.8423 0.800709 21.6667 1.22463 21.6667 1.66666C21.6667 2.10869 21.8423 2.53261 22.1548 2.84517C22.4674 3.15773 22.8913 3.33333 23.3333 3.33333C24.6594 3.33333 25.9312 3.86011 26.8689 4.79779C27.8065 5.73547 28.3333 7.00724 28.3333 8.33333C28.331 9.20873 28.0988 10.0682 27.6601 10.8257C27.2214 11.5832 26.5915 12.2123 25.8333 12.65C25.5862 12.7925 25.3798 12.9961 25.2339 13.2412C25.088 13.4864 25.0075 13.7648 25 14.05C24.993 14.3329 25.0582 14.613 25.1894 14.8638C25.3207 15.1145 25.5136 15.3277 25.75 15.4833L26.4 15.9167L26.6167 16.0333C28.6257 16.9862 30.3205 18.4933 31.5016 20.3772C32.6827 22.2611 33.3009 24.4432 33.2833 26.6667C33.2833 27.1087 33.4589 27.5326 33.7715 27.8452C34.084 28.1577 34.508 28.3333 34.95 28.3333C35.392 28.3333 35.8159 28.1577 36.1285 27.8452C36.4411 27.5326 36.6167 27.1087 36.6167 26.6667C36.6303 24.109 35.9897 21.5904 34.7558 19.3501C33.5219 17.1098 31.7356 15.2222 29.5667 13.8667Z" fill="#4B31EE"/>
</svg>
