<svg width="18" height="22" viewBox="0 0 18 22" fill="none" xmlns="http://www.w3.org/2000/svg">
<path fill-rule="evenodd" clip-rule="evenodd" d="M4.2769 17.6852C5.57975 19.2402 7.01036 20.6835 8.55379 22C10.0972 20.6835 11.5278 19.2402 12.8307 17.6852C14.7858 15.35 17.1076 11.8723 17.1076 8.55833C17.1148 6.28838 16.2137 4.10988 14.605 2.50835C12.1587 0.0598189 8.4779 -0.673163 5.28022 0.651444C2.08254 1.97605 -0.00173187 5.09715 1.07981e-06 8.55833C1.07981e-06 11.8723 2.32175 15.35 4.2769 17.6852Z" fill="#4B31EE"/>
<path d="M5.88155 11.222V4.17198H8.97155C9.73822 4.17198 10.3282 4.33532 10.7416 4.66198C11.1549 4.98198 11.3616 5.42865 11.3616 6.00198C11.3616 6.42865 11.2349 6.78865 10.9816 7.08198C10.7282 7.37532 10.3782 7.57198 9.93155 7.67198V7.52198C10.4449 7.59532 10.8416 7.78198 11.1216 8.08198C11.4082 8.37532 11.5516 8.76532 11.5516 9.25198C11.5516 9.87865 11.3349 10.3653 10.9016 10.712C10.4682 11.052 9.86488 11.222 9.09155 11.222H5.88155ZM7.12155 10.242H8.94155C9.37488 10.242 9.71155 10.162 9.95155 10.002C10.1916 9.83532 10.3116 9.56532 10.3116 9.19198C10.3116 8.81198 10.1916 8.54198 9.95155 8.38198C9.71155 8.21532 9.37488 8.13198 8.94155 8.13198H7.12155V10.242ZM7.12155 7.16198H8.75155C9.21155 7.16198 9.55155 7.07865 9.77155 6.91198C9.99822 6.73865 10.1116 6.48532 10.1116 6.15198C10.1116 5.81865 9.99822 5.56865 9.77155 5.40198C9.55155 5.22865 9.21155 5.14198 8.75155 5.14198H7.12155V7.16198Z" fill="white"/>
</svg>
