<svg width="16" height="14" viewBox="0 0 16 14" fill="none" xmlns="http://www.w3.org/2000/svg">
<path d="M15.2223 14H0.779292C0.500874 14 0.243609 13.8517 0.104403 13.6111C-0.0348027 13.3704 -0.0348009 13.0739 0.104408 12.8333L7.32551 0.388202C7.46482 0.147943 7.72187 0 8 0C8.27813 0 8.53518 0.147943 8.67449 0.388202L15.8956 12.8333C16.0347 13.0738 16.0348 13.3701 15.8958 13.6107C15.7568 13.8514 15.4998 13.9997 15.2215 14H15.2223ZM8.00117 2.33274L2.13218 12.4444H13.8717L8.00117 2.33274ZM8.77658 9.33388H7.21796V5.44401H8.77658V9.33388Z" fill="#4B31EE" fill-opacity="0.5"/>
<path d="M7.22186 10.1125H8.78048V11.6681H7.22186V10.1125Z" fill="#4B31EE" fill-opacity="0.5"/>
</svg>
